<svg id="visual" viewBox="0 0 900 600" width="900" height="600" xmlns="http://www.w3.org/2000/svg" xmlns:xlink="http://www.w3.org/1999/xlink" version="1.1"><g stroke-width="1" stroke-linejoin="bevel"><path d="M409 301L414 364L497 315Z" fill="#0c2435" stroke="#0c2435"></path><path d="M414 364L535 390L497 315Z" fill="#15384f" stroke="#15384f"></path><path d="M285 311L331 409L414 364Z" fill="#081a28" stroke="#081a28"></path><path d="M414 364L517 460L535 390Z" fill="#1d4e6b" stroke="#1d4e6b"></path><path d="M638 215L479 187L497 315Z" fill="#205a7a" stroke="#205a7a"></path><path d="M497 315L479 187L409 301Z" fill="#1d4e6b" stroke="#1d4e6b"></path><path d="M409 301L285 311L414 364Z" fill="#246688" stroke="#246688"></path><path d="M375 525L517 460L414 364Z" fill="#19435d" stroke="#19435d"></path><path d="M517 460L588 410L535 390Z" fill="#15384f" stroke="#15384f"></path><path d="M535 390L618 325L497 315Z" fill="#00101c" stroke="#00101c"></path><path d="M363 173L285 311L409 301Z" fill="#081a28" stroke="#081a28"></path><path d="M588 410L618 325L535 390Z" fill="#112e42" stroke="#112e42"></path><path d="M479 187L363 173L409 301Z" fill="#112e42" stroke="#112e42"></path><path d="M597 118L462 129L479 187Z" fill="#081a28" stroke="#081a28"></path><path d="M479 187L462 129L363 173Z" fill="#1d4e6b" stroke="#1d4e6b"></path><path d="M271 480L375 525L331 409Z" fill="#246688" stroke="#246688"></path><path d="M331 409L375 525L414 364Z" fill="#1d4e6b" stroke="#1d4e6b"></path><path d="M517 460L601 482L588 410Z" fill="#19435d" stroke="#19435d"></path><path d="M588 410L696 362L618 325Z" fill="#205a7a" stroke="#205a7a"></path><path d="M524 600L601 482L517 460Z" fill="#15384f" stroke="#15384f"></path><path d="M708 318L638 215L618 325Z" fill="#205a7a" stroke="#205a7a"></path><path d="M618 325L638 215L497 315Z" fill="#081a28" stroke="#081a28"></path><path d="M196 409L271 480L331 409Z" fill="#297ea6" stroke="#297ea6"></path><path d="M180 222L209 307L285 311Z" fill="#205a7a" stroke="#205a7a"></path><path d="M285 311L196 409L331 409Z" fill="#1d4e6b" stroke="#1d4e6b"></path><path d="M291 102L266 171L363 173Z" fill="#19435d" stroke="#19435d"></path><path d="M363 173L266 171L285 311Z" fill="#00101c" stroke="#00101c"></path><path d="M709 469L696 362L588 410Z" fill="#205a7a" stroke="#205a7a"></path><path d="M474 0L438 77L462 129Z" fill="#205a7a" stroke="#205a7a"></path><path d="M462 129L438 77L363 173Z" fill="#205a7a" stroke="#205a7a"></path><path d="M638 215L597 118L479 187Z" fill="#112e42" stroke="#112e42"></path><path d="M696 362L708 318L618 325Z" fill="#00101c" stroke="#00101c"></path><path d="M638 215L693 175L597 118Z" fill="#15384f" stroke="#15384f"></path><path d="M209 307L196 409L285 311Z" fill="#15384f" stroke="#15384f"></path><path d="M277 600L430 600L375 525Z" fill="#081a28" stroke="#081a28"></path><path d="M375 525L430 600L517 460Z" fill="#15384f" stroke="#15384f"></path><path d="M438 77L291 102L363 173Z" fill="#15384f" stroke="#15384f"></path><path d="M266 171L180 222L285 311Z" fill="#1d4e6b" stroke="#1d4e6b"></path><path d="M430 600L524 600L517 460Z" fill="#081a28" stroke="#081a28"></path><path d="M601 482L709 469L588 410Z" fill="#081a28" stroke="#081a28"></path><path d="M708 318L693 175L638 215Z" fill="#205a7a" stroke="#205a7a"></path><path d="M180 100L180 222L266 171Z" fill="#1d4e6b" stroke="#1d4e6b"></path><path d="M209 307L125 325L196 409Z" fill="#205a7a" stroke="#205a7a"></path><path d="M629 600L709 469L601 482Z" fill="#246688" stroke="#246688"></path><path d="M696 362L801 392L708 318Z" fill="#246688" stroke="#246688"></path><path d="M196 409L221 537L271 480Z" fill="#081a28" stroke="#081a28"></path><path d="M271 480L277 600L375 525Z" fill="#112e42" stroke="#112e42"></path><path d="M221 537L277 600L271 480Z" fill="#15384f" stroke="#15384f"></path><path d="M786 96L700 125L693 175Z" fill="#277297" stroke="#277297"></path><path d="M693 175L700 125L597 118Z" fill="#246688" stroke="#246688"></path><path d="M597 118L474 0L462 129Z" fill="#112e42" stroke="#112e42"></path><path d="M524 600L629 600L601 482Z" fill="#246688" stroke="#246688"></path><path d="M180 222L125 325L209 307Z" fill="#00101c" stroke="#00101c"></path><path d="M196 409L91 526L221 537Z" fill="#1d4e6b" stroke="#1d4e6b"></path><path d="M628 0L474 0L597 118Z" fill="#00101c" stroke="#00101c"></path><path d="M438 77L418 0L291 102Z" fill="#0c2435" stroke="#0c2435"></path><path d="M474 0L418 0L438 77Z" fill="#1d4e6b" stroke="#1d4e6b"></path><path d="M291 0L180 100L291 102Z" fill="#15384f" stroke="#15384f"></path><path d="M291 102L180 100L266 171Z" fill="#19435d" stroke="#19435d"></path><path d="M180 222L64 221L125 325Z" fill="#0c2435" stroke="#0c2435"></path><path d="M709 469L801 392L696 362Z" fill="#15384f" stroke="#15384f"></path><path d="M708 318L836 288L693 175Z" fill="#081a28" stroke="#081a28"></path><path d="M790 487L801 392L709 469Z" fill="#1d4e6b" stroke="#1d4e6b"></path><path d="M418 0L291 0L291 102Z" fill="#205a7a" stroke="#205a7a"></path><path d="M700 125L628 0L597 118Z" fill="#00101c" stroke="#00101c"></path><path d="M728 600L790 487L709 469Z" fill="#246688" stroke="#246688"></path><path d="M0 275L75 381L125 325Z" fill="#0c2435" stroke="#0c2435"></path><path d="M125 325L75 381L196 409Z" fill="#081a28" stroke="#081a28"></path><path d="M221 537L179 600L277 600Z" fill="#246688" stroke="#246688"></path><path d="M91 526L179 600L221 537Z" fill="#205a7a" stroke="#205a7a"></path><path d="M629 600L728 600L709 469Z" fill="#15384f" stroke="#15384f"></path><path d="M900 261L836 288L900 424Z" fill="#15384f" stroke="#15384f"></path><path d="M801 392L836 288L708 318Z" fill="#297ea6" stroke="#297ea6"></path><path d="M700 125L738 0L628 0Z" fill="#1d4e6b" stroke="#1d4e6b"></path><path d="M104 98L64 221L180 222Z" fill="#246688" stroke="#246688"></path><path d="M75 381L91 526L196 409Z" fill="#0c2435" stroke="#0c2435"></path><path d="M837 183L786 96L693 175Z" fill="#19435d" stroke="#19435d"></path><path d="M836 288L837 183L693 175Z" fill="#112e42" stroke="#112e42"></path><path d="M180 100L104 98L180 222Z" fill="#15384f" stroke="#15384f"></path><path d="M126 0L104 98L180 100Z" fill="#205a7a" stroke="#205a7a"></path><path d="M91 526L130 600L179 600Z" fill="#112e42" stroke="#112e42"></path><path d="M807 0L738 0L786 96Z" fill="#112e42" stroke="#112e42"></path><path d="M786 96L738 0L700 125Z" fill="#1d4e6b" stroke="#1d4e6b"></path><path d="M291 0L161 0L180 100Z" fill="#0c2435" stroke="#0c2435"></path><path d="M0 211L64 221L0 118Z" fill="#1d4e6b" stroke="#1d4e6b"></path><path d="M0 211L0 275L64 221Z" fill="#1d4e6b" stroke="#1d4e6b"></path><path d="M64 221L0 275L125 325Z" fill="#112e42" stroke="#112e42"></path><path d="M75 381L0 506L91 526Z" fill="#205a7a" stroke="#205a7a"></path><path d="M0 275L0 395L75 381Z" fill="#081a28" stroke="#081a28"></path><path d="M91 526L0 600L130 600Z" fill="#297ea6" stroke="#297ea6"></path><path d="M900 424L836 288L801 392Z" fill="#297ea6" stroke="#297ea6"></path><path d="M836 288L900 261L837 183Z" fill="#0c2435" stroke="#0c2435"></path><path d="M837 183L900 121L786 96Z" fill="#00101c" stroke="#00101c"></path><path d="M900 464L900 424L801 392Z" fill="#19435d" stroke="#19435d"></path><path d="M900 464L801 392L790 487Z" fill="#00101c" stroke="#00101c"></path><path d="M161 0L126 0L180 100Z" fill="#297ea6" stroke="#297ea6"></path><path d="M0 118L64 221L104 98Z" fill="#246688" stroke="#246688"></path><path d="M728 600L829 600L790 487Z" fill="#00101c" stroke="#00101c"></path><path d="M829 600L900 464L790 487Z" fill="#246688" stroke="#246688"></path><path d="M900 261L900 167L837 183Z" fill="#081a28" stroke="#081a28"></path><path d="M0 395L0 506L75 381Z" fill="#112e42" stroke="#112e42"></path><path d="M900 0L807 0L786 96Z" fill="#081a28" stroke="#081a28"></path><path d="M900 167L900 121L837 183Z" fill="#112e42" stroke="#112e42"></path><path d="M0 0L0 118L104 98Z" fill="#277297" stroke="#277297"></path><path d="M0 506L0 600L91 526Z" fill="#297ea6" stroke="#297ea6"></path><path d="M829 600L900 600L900 464Z" fill="#112e42" stroke="#112e42"></path><path d="M126 0L0 0L104 98Z" fill="#297ea6" stroke="#297ea6"></path><path d="M900 121L900 0L786 96Z" fill="#277297" stroke="#277297"></path></g></svg>